<svg xmlns="http://www.w3.org/2000/svg" xmlns:xlink="http://www.w3.org/1999/xlink" xmlns:lucid="lucid" width="1342" height="973"><g transform="translate(-288 0)" lucid:page-tab-id="0_0"><path d="M0 0h1760v1360H0z" fill="#fff"/><path d="M453.15 76a8 8 0 0 1 8-8h836.75a8 8 0 0 1 8 8v25.16a8 8 0 0 1-8 8H461.15a8 8 0 0 1-8-8z" stroke="#000" stroke-opacity="0" stroke-width="2" fill="#fff" fill-opacity="0"/><use xlink:href="#a" transform="matrix(1,0,0,1,457.1465527853429,71.99999999994924) translate(158.2998003472223 25.777656249999996)"/><use xlink:href="#b" transform="matrix(1,0,0,1,457.1465527853429,71.99999999994924) translate(299.92284722222223 25.777656249999996)"/><use xlink:href="#c" transform="matrix(1,0,0,1,457.1465527853429,71.99999999994924) translate(347.1305295138889 25.777656249999996)"/><use xlink:href="#d" transform="matrix(1,0,0,1,457.1465527853429,71.99999999994924) translate(378.6023177083333 25.777656249999996)"/><use xlink:href="#e" transform="matrix(1,0,0,1,457.1465527853429,71.99999999994924) translate(583.1689409722222 25.777656249999996)"/><path d="M541.97 107.8h681.06M542 107.8h-1.03M1223 107.8h1.03" stroke="#a9afb8" stroke-width="2" fill="none"/><path d="M453.15 117.16a8 8 0 0 1 8-8h837.7a8 8 0 0 1 8 8V120a8 8 0 0 1-8 8h-837.7a8 8 0 0 1-8-8z" stroke="#000" stroke-opacity="0" stroke-width="2" fill="#fff" fill-opacity="0"/><path d="M540 208a8 8 0 0 1 8-8h324a8 8 0 0 1 8 8v208a8 8 0 0 1-8 8H548a8 8 0 0 1-8-8z" fill="#fff"/><path d="M540 240v-32a8 8 0 0 1 8-8h324a8 8 0 0 1 8 8v32" fill="#ccc"/><path d="M540 208a8 8 0 0 1 8-8h324a8 8 0 0 1 8 8v208a8 8 0 0 1-8 8H548a8 8 0 0 1-8-8zM540 240h340M577.33 240v184M770.67 240v184" stroke="#333" fill="none"/><use xlink:href="#f" transform="matrix(1,0,0,1,550,200) translate(105.9912109375 25.396484375)"/><use xlink:href="#g" transform="matrix(1,0,0,1,545,242.5) translate(0 16.896484375)"/><use xlink:href="#h" transform="matrix(1,0,0,1,582.3333333333334,242.5) translate(0 16.896484375)"/><use xlink:href="#i" transform="matrix(1,0,0,1,775.6666666666667,242.5) translate(0 16.896484375)"/><use xlink:href="#j" transform="matrix(1,0,0,1,582.3333333333334,270.5) translate(0 18.896484375)"/><use xlink:href="#k" transform="matrix(1,0,0,1,775.6666666666667,270.5) translate(0 18.896484375)"/><use xlink:href="#l" transform="matrix(1,0,0,1,582.3333333333334,302.5) translate(0 18.896484375)"/><use xlink:href="#m" transform="matrix(1,0,0,1,775.6666666666667,302.5) translate(0 18.896484375)"/><use xlink:href="#n" transform="matrix(1,0,0,1,582.3333333333334,334.5) translate(0 18.896484375)"/><use xlink:href="#m" transform="matrix(1,0,0,1,775.6666666666667,334.5) translate(0 18.896484375)"/><use xlink:href="#o" transform="matrix(1,0,0,1,582.3333333333334,366.5) translate(0 18.896484375)"/><use xlink:href="#p" transform="matrix(1,0,0,1,775.6666666666667,366.5) translate(0 18.896484375)"/><use xlink:href="#q" transform="matrix(1,0,0,1,545,398.5) translate(0 16.896484375)"/><use xlink:href="#r" transform="matrix(1,0,0,1,582.3333333333334,398.5) translate(0 16.896484375)"/><use xlink:href="#s" transform="matrix(1,0,0,1,775.6666666666667,398.5) translate(0 16.896484375)"/><path d="M540 608a8 8 0 0 1 8-8h324a8 8 0 0 1 8 8v176a8 8 0 0 1-8 8H548a8 8 0 0 1-8-8z" fill="#fff"/><path d="M540 640v-32a8 8 0 0 1 8-8h324a8 8 0 0 1 8 8v32" fill="#ccc"/><path d="M540 608a8 8 0 0 1 8-8h324a8 8 0 0 1 8 8v176a8 8 0 0 1-8 8H548a8 8 0 0 1-8-8zM540 640h340M577.33 640v152M762.67 640v152" stroke="#333" fill="none"/><use xlink:href="#t" transform="matrix(1,0,0,1,550,600) translate(105.9912109375 25.396484375)"/><use xlink:href="#g" transform="matrix(1,0,0,1,545,642.5) translate(0 16.896484375)"/><use xlink:href="#h" transform="matrix(1,0,0,1,582.3333333333334,642.5) translate(0 16.896484375)"/><use xlink:href="#i" transform="matrix(1,0,0,1,767.6666666666666,642.5) translate(0 16.896484375)"/><use xlink:href="#j" transform="matrix(1,0,0,1,582.3333333333334,670.5) translate(0 18.896484375)"/><use xlink:href="#k" transform="matrix(1,0,0,1,767.6666666666666,670.5) translate(0 18.896484375)"/><use xlink:href="#u" transform="matrix(1,0,0,1,582.3333333333334,702.5) translate(0 18.896484375)"/><use xlink:href="#k" transform="matrix(1,0,0,1,767.6666666666666,702.5) translate(0 18.896484375)"/><use xlink:href="#v" transform="matrix(1,0,0,1,545,734.5) translate(8.59912109375 16.896484375)"/><use xlink:href="#w" transform="matrix(1,0,0,1,582.3333333333334,734.5) translate(0 16.896484375)"/><use xlink:href="#k" transform="matrix(1,0,0,1,767.6666666666666,734.5) translate(0 16.896484375)"/><use xlink:href="#x" transform="matrix(1,0,0,1,582.3333333333334,762.5) translate(0 18.896484375)"/><use xlink:href="#k" transform="matrix(1,0,0,1,767.6666666666666,762.5) translate(0 18.896484375)"/><path d="M1080 208a8 8 0 0 1 8-8h344a8 8 0 0 1 8 8v336a8 8 0 0 1-8 8h-344a8 8 0 0 1-8-8z" fill="#fff"/><path d="M1080 240v-32a8 8 0 0 1 8-8h344a8 8 0 0 1 8 8v32" fill="#ccc"/><path d="M1080 208a8 8 0 0 1 8-8h344a8 8 0 0 1 8 8v336a8 8 0 0 1-8 8h-344a8 8 0 0 1-8-8zM1080 240h360M1117.33 240v312M1324 240v312" stroke="#333" fill="none"/><use xlink:href="#y" transform="matrix(1,0,0,1,1090,200) translate(105.18945312500001 25.396484375)"/><use xlink:href="#g" transform="matrix(1,0,0,1,1085,242.5) translate(0 16.896484375)"/><use xlink:href="#h" transform="matrix(1,0,0,1,1122.3333333333335,242.5) translate(0 16.896484375)"/><use xlink:href="#i" transform="matrix(1,0,0,1,1329.0000000000002,242.5) translate(0 16.896484375)"/><use xlink:href="#z" transform="matrix(1,0,0,1,1122.3333333333335,270.5) translate(0 18.896484375)"/><use xlink:href="#k" transform="matrix(1,0,0,1,1329.0000000000002,270.5) translate(0 18.896484375)"/><use xlink:href="#A" transform="matrix(1,0,0,1,1122.3333333333335,302.5) translate(0 18.896484375)"/><use xlink:href="#k" transform="matrix(1,0,0,1,1329.0000000000002,302.5) translate(0 18.896484375)"/><use xlink:href="#B" transform="matrix(1,0,0,1,1122.3333333333335,334.5) translate(0 18.896484375)"/><use xlink:href="#k" transform="matrix(1,0,0,1,1329.0000000000002,334.5) translate(0 18.896484375)"/><use xlink:href="#C" transform="matrix(1,0,0,1,1122.3333333333335,366.5) translate(0 18.896484375)"/><use xlink:href="#k" transform="matrix(1,0,0,1,1329.0000000000002,366.5) translate(0 18.896484375)"/><use xlink:href="#D" transform="matrix(1,0,0,1,1122.3333333333335,398.5) translate(0 18.896484375)"/><use xlink:href="#i" transform="matrix(1,0,0,1,1329.0000000000002,398.5) translate(0 18.896484375)"/><use xlink:href="#E" transform="matrix(1,0,0,1,1122.3333333333335,430.5) translate(0 18.896484375)"/><use xlink:href="#F" transform="matrix(1,0,0,1,1329.0000000000002,430.5) translate(0 18.896484375)"/><use xlink:href="#G" transform="matrix(1,0,0,1,1122.3333333333335,462.5) translate(0 18.896484375)"/><use xlink:href="#H" transform="matrix(1,0,0,1,1329.0000000000002,462.5) translate(0 18.896484375)"/><use xlink:href="#I" transform="matrix(1,0,0,1,1122.3333333333335,494.5) translate(0 18.896484375)"/><use xlink:href="#H" transform="matrix(1,0,0,1,1329.0000000000002,494.5) translate(0 18.896484375)"/><use xlink:href="#J" transform="matrix(1,0,0,1,1085,526.5) translate(0 16.896484375)"/><use xlink:href="#K" transform="matrix(1,0,0,1,1122.3333333333335,526.5) translate(0 16.896484375)"/><use xlink:href="#i" transform="matrix(1,0,0,1,1329.0000000000002,526.5) translate(0 16.896484375)"/><path d="M1080 608a8 8 0 0 1 8-8h344a8 8 0 0 1 8 8v112a8 8 0 0 1-8 8h-344a8 8 0 0 1-8-8z" fill="#fff"/><path d="M1080 640v-32a8 8 0 0 1 8-8h344a8 8 0 0 1 8 8v32" fill="#ccc"/><path d="M1080 608a8 8 0 0 1 8-8h344a8 8 0 0 1 8 8v112a8 8 0 0 1-8 8h-344a8 8 0 0 1-8-8zM1080 640h360M1117.33 640v88M1322.67 640v88" stroke="#333" fill="none"/><use xlink:href="#L" transform="matrix(1,0,0,1,1090,600) translate(67.38330078125001 25.396484375)"/><use xlink:href="#g" transform="matrix(1,0,0,1,1085,642.5) translate(0 16.896484375)"/><use xlink:href="#h" transform="matrix(1,0,0,1,1122.3333333333335,642.5) translate(0 16.896484375)"/><use xlink:href="#i" transform="matrix(1,0,0,1,1327.6666666666665,642.5) translate(0 16.896484375)"/><use xlink:href="#M" transform="matrix(1,0,0,1,1122.3333333333335,670.5) translate(0 18.896484375)"/><use xlink:href="#k" transform="matrix(1,0,0,1,1327.6666666666665,670.5) translate(0 18.896484375)"/><use xlink:href="#J" transform="matrix(1,0,0,1,1085,702.5) translate(0 16.896484375)"/><use xlink:href="#N" transform="matrix(1,0,0,1,1122.3333333333335,702.5) translate(0 16.896484375)"/><use xlink:href="#i" transform="matrix(1,0,0,1,1327.6666666666665,702.5) translate(0 16.896484375)"/><path d="M710 579.5V443.9" stroke="#333" fill="none"/><path d="M720 579.5h-20M710 599.5v-20" stroke="#333" fill="#fff"/><path d="M720 424.72l-10 20-10-20" stroke="#333" fill="#fff" fill-opacity="0"/><path d="M710 424.72v20" stroke="#333" fill="#fff"/><path d="M900.5 316h159.6" stroke="#333" fill="none"/><path d="M900.5 326v-20M880.5 316h20" stroke="#333" fill="#fff"/><path d="M1079.28 326l-20-10 20-10" stroke="#333" fill="#fff" fill-opacity="0"/><path d="M1079.28 316h-20" stroke="#333" fill="#fff"/><path d="M1260 572.5v7.6" stroke="#333" fill="none"/><path d="M1250 572.5h20M1260 552.5v20" stroke="#333" fill="#fff"/><path d="M1250 599.28l10-20 10 20" stroke="#333" fill="#fff" fill-opacity="0"/><path d="M1260 599.28v-20" stroke="#333" fill="#fff"/><defs><path d="M496-1349c439 0 656 222 653 664C1146-265 969 0 556 0H135v-1349h361zm36 1121c245-7 319-187 320-457 1-273-91-439-361-436h-61v893h102" id="O"/><path d="M794-190h353V0H118v-190h395v-702H223v-190h571v892zM513-1277v-207h281v207H513" id="P"/><path d="M775-193C708-75 621 20 439 20 226 20 106-93 106-306c0-251 170-341 417-346l223-4c4-143-12-264-148-264-103 0-141 58-150 153l-293-14c37-219 194-321 455-321 263 0 418 130 417 390v392c1 84 5 161 89 160 21 0 42-2 62-6v152c-57 15-108 27-180 26-145 0-202-73-217-205h-6zm-256 17c168 0 234-139 227-325-166 4-347-25-347 173 0 94 33 152 120 152" id="Q"/><path d="M1108-33c-3 314-178 467-492 467-243 0-400-94-447-291l281-33c17 79 82 141 174 141 176 0 212-155 205-347-2-40 5-80 0-115C773-85 665-12 501-12c-288 0-377-242-377-538 0-242 65-426 223-510 50-26 108-39 175-39 160 0 253 78 307 191h5c1-58 5-125 14-174h266c-12 335-3 703-6 1049zM811-384c25-82 27-259 1-342-30-99-77-180-190-180-172 0-205 171-205 356 0 116 18 202 54 258 48 76 129 107 221 70 62-25 96-86 119-162" id="R"/><path d="M875-1102c70 0 148 7 206 17v237c-110-17-267-37-359 15-123 69-192 207-192 395V0H250c-10-367 32-789-52-1082h271c19 69 36 149 46 228h4c52-151 151-250 356-248" id="S"/><path d="M934-1102c199 0 220 177 220 381V0H926c-2-260 10-533-4-785-4-72-14-138-83-138-34 0-61 27-81 81s-29 134-29 241V0H501c-2-260 9-533-5-785-4-72-13-138-82-138-46 0-65 47-80 93-21 67-30 155-30 248V0H75c-3-360 6-732-6-1082h209c6 50 3 123 8 175 36-100 83-195 216-195 135 0 166 79 196 196 42-105 93-196 236-196" id="T"/><g id="a"><use transform="matrix(0.012803819444444442,0,0,0.012803819444444442,0,0)" xlink:href="#O"/><use transform="matrix(0.012803819444444442,0,0,0.012803819444444442,15.73589409722222,0)" xlink:href="#P"/><use transform="matrix(0.012803819444444442,0,0,0.012803819444444442,31.47178819444444,0)" xlink:href="#Q"/><use transform="matrix(0.012803819444444442,0,0,0.012803819444444442,47.20768229166666,0)" xlink:href="#R"/><use transform="matrix(0.012803819444444442,0,0,0.012803819444444442,62.94357638888888,0)" xlink:href="#S"/><use transform="matrix(0.012803819444444442,0,0,0.012803819444444442,78.6794704861111,0)" xlink:href="#Q"/><use transform="matrix(0.012803819444444442,0,0,0.012803819444444442,94.41536458333331,0)" xlink:href="#T"/><use transform="matrix(0.012803819444444442,0,0,0.012803819444444442,110.15125868055554,0)" xlink:href="#Q"/></g><path d="M137 0v-1349h968v228H432v324h612v228H432v341h714V0H137" id="U"/><path d="M1157-949c0 209-118 316-279 368L1227 0H895L605-515H432V0H137v-1349h494c317-2 526 111 526 400zM608-744c158 1 248-51 252-193 5-207-223-184-428-183v376h176" id="V"/><g id="b"><use transform="matrix(0.012803819444444442,0,0,0.012803819444444442,0,0)" xlink:href="#U"/><use transform="matrix(0.012803819444444442,0,0,0.012803819444444442,15.73589409722222,0)" xlink:href="#V"/></g><path d="M324-409v-244h580v244H324" id="W"/><use transform="matrix(0.012803819444444442,0,0,0.012803819444444442,0,0)" xlink:href="#W" id="c"/><path d="M1113-274C1038-96 884 20 626 20c-352 0-526-209-526-566 0-358 185-556 530-556 358 0 496 251 499 615H395c5 180 68 319 245 319 102 0 186-45 208-129zM857-663c-6-177-128-307-315-247-94 30-141 121-145 247h460" id="X"/><path d="M800 425c-1-198 1-404 0-596C746-55 645 20 483 20 183 20 97-237 97-543c0-242 74-429 227-518 49-28 105-42 168-42 163 0 248 85 306 197h4c1-59 6-126 15-176h272c-4 67-9 153-8 236V425H800zm-66-671c93-114 91-467-2-586-35-45-76-79-141-79-64 0-113 31-149 92-69 115-66 440 4 561 39 68 130 111 220 70 25-11 46-31 68-58" id="Y"/><path d="M471 20c-247 0-336-169-336-415v-687h281v607c4 148 31 285 172 285 152 0 207-150 207-312v-580h281c4 359-9 736 8 1082H816c-7-63-11-146-12-215h-5C736-76 644 20 471 20" id="Z"/><path d="M768-1103c247 0 336 167 336 416V0H824v-619c-3-164-24-273-171-273-164 0-229 142-229 312V0H143c-4-359 9-736-8-1082h268c7 63 12 146 13 215h4c67-145 160-236 348-236" id="aa"/><path d="M711 13c-250 0-386-99-385-349l2-556H161v-190h181l88-282h176v282h385v190H606v530c-10 130 45 186 174 184 91-2 176-11 255-27v186C933-1 833 13 711 13" id="ab"/><path d="M622-916c-112 2-200 14-200 111 0 90 89 101 168 121 234 58 514 77 514 368C1104-4 751 54 434 5 267-21 161-112 121-270l247-37c24 111 113 145 252 141 114-3 226-12 226-124 0-101-103-113-192-134-225-54-490-76-490-351 0-247 201-328 458-328 245 0 413 88 457 292l-249 26c-16-98-92-133-208-131" id="ac"/><g id="d"><use transform="matrix(0.012803819444444442,0,0,0.012803819444444442,0,0)" xlink:href="#V"/><use transform="matrix(0.012803819444444442,0,0,0.012803819444444442,15.73589409722222,0)" xlink:href="#X"/><use transform="matrix(0.012803819444444442,0,0,0.012803819444444442,31.47178819444444,0)" xlink:href="#Y"/><use transform="matrix(0.012803819444444442,0,0,0.012803819444444442,47.20768229166666,0)" xlink:href="#Z"/><use transform="matrix(0.012803819444444442,0,0,0.012803819444444442,62.94357638888888,0)" xlink:href="#P"/><use transform="matrix(0.012803819444444442,0,0,0.012803819444444442,78.6794704861111,0)" xlink:href="#S"/><use transform="matrix(0.012803819444444442,0,0,0.012803819444444442,94.41536458333331,0)" xlink:href="#X"/><use transform="matrix(0.012803819444444442,0,0,0.012803819444444442,110.15125868055554,0)" xlink:href="#T"/><use transform="matrix(0.012803819444444442,0,0,0.012803819444444442,125.88715277777773,0)" xlink:href="#X"/><use transform="matrix(0.012803819444444442,0,0,0.012803819444444442,141.62304687499997,0)" xlink:href="#aa"/><use transform="matrix(0.012803819444444442,0,0,0.012803819444444442,157.3589409722222,0)" xlink:href="#ab"/><use transform="matrix(0.012803819444444442,0,0,0.012803819444444442,173.09483506944443,0)" xlink:href="#ac"/></g><path d="M305-1169c27 366 9 780 14 1169H99v-1349h347c49 189 108 371 150 564 12 56 15 107 23 166 33-270 117-487 176-730h335V0H908c5-390-13-801 16-1169-52 285-130 541-199 809H507c-70-267-148-525-202-809" id="ad"/><g id="e"><use transform="matrix(0.012803819444444442,0,0,0.012803819444444442,0,0)" xlink:href="#ad"/><use transform="matrix(0.012803819444444442,0,0,0.012803819444444442,15.73589409722222,0)" xlink:href="#Q"/><use transform="matrix(0.012803819444444442,0,0,0.012803819444444442,31.47178819444444,0)" xlink:href="#aa"/><use transform="matrix(0.012803819444444442,0,0,0.012803819444444442,47.20768229166666,0)" xlink:href="#Q"/><use transform="matrix(0.012803819444444442,0,0,0.012803819444444442,62.94357638888888,0)" xlink:href="#R"/><use transform="matrix(0.012803819444444442,0,0,0.012803819444444442,78.6794704861111,0)" xlink:href="#X"/><use transform="matrix(0.012803819444444442,0,0,0.012803819444444442,94.41536458333331,0)" xlink:href="#S"/></g><path fill="#333" d="M682 16c-209 0-323-80-324-285v-671H190v-142h170l58-282h120v282h432v142H538v652c2 114 60 155 182 155 106 0 209-16 297-34v137C921-4 806 16 682 16" id="ae"/><path fill="#333" d="M365-904c58-129 161-200 334-200 130 0 228 46 293 138s98 233 98 420c0 189-34 331-102 425S824 20 698 20c-170 0-275-64-336-184 0 55-3 116-9 164H179c5-68 6-147 6-223v-1261h180c-2 193 4 394-4 580h4zm283 791c221 0 256-197 256-427 0-229-34-425-254-425-236 0-285 195-285 441 0 237 53 411 283 411" id="af"/><path fill="#333" d="M-5 220v-96h1238v96H-5" id="ag"/><path fill="#333" d="M698-1104c312 3 392 244 392 558 0 315-82 566-392 566-169 0-277-65-331-184h-5c8 188 2 394 4 589H185V-858c0-76-1-156-6-224h175c6 52 9 120 10 178h4c58-122 150-202 330-200zm-49 991c225 0 255-203 255-433 0-225-32-419-253-419-236 0-285 192-285 441 0 237 53 411 283 411" id="ah"/><path fill="#333" d="M839-1102c70 0 148 7 206 17v167c-112-18-268-36-363 15-129 69-208 203-208 395V0H294c-10-367 32-789-52-1082h171c21 75 41 161 48 250h5c67-152 152-270 373-270" id="ai"/><path fill="#333" d="M615-1102c343 0 484 203 482 560-1 347-147 562-488 562-336 0-475-219-479-562-4-349 156-560 485-560zm-8 989c240 0 301-180 301-429 0-245-55-427-290-427-236 0-299 181-299 427 0 243 61 429 288 429" id="aj"/><path fill="#333" d="M390 276c167 0 266-82 266-251v-965H249v-142h587V28c-4 270-165 397-431 397-107 0-208-16-288-43V242c80 18 173 34 273 34zm246-1568v-192h200v192H636" id="ak"/><path fill="#333" d="M617-1102c355 0 481 238 477 599H322c5 222 84 388 301 388 144 0 244-59 284-166l158 45C1002-72 854 20 623 20c-342 0-490-220-490-568 0-346 151-554 484-554zm291 461c-18-192-90-328-289-328-194 0-287 128-295 328h584" id="al"/><g id="f"><use transform="matrix(0.008789062499999998,0,0,0.008789062499999998,0,0)" xlink:href="#ae"/><use transform="matrix(0.008789062499999998,0,0,0.008789062499999998,10.801757812499998,0)" xlink:href="#af"/><use transform="matrix(0.008789062499999998,0,0,0.008789062499999998,21.603515624999996,0)" xlink:href="#ag"/><use transform="matrix(0.008789062499999998,0,0,0.008789062499999998,32.40527343749999,0)" xlink:href="#ah"/><use transform="matrix(0.008789062499999998,0,0,0.008789062499999998,43.20703124999999,0)" xlink:href="#ai"/><use transform="matrix(0.008789062499999998,0,0,0.008789062499999998,54.008789062499986,0)" xlink:href="#aj"/><use transform="matrix(0.008789062499999998,0,0,0.008789062499999998,64.81054687499999,0)" xlink:href="#ak"/><use transform="matrix(0.008789062499999998,0,0,0.008789062499999998,75.61230468749999,0)" xlink:href="#al"/><use transform="matrix(0.008789062499999998,0,0,0.008789062499999998,86.41406249999999,0)" xlink:href="#ae"/><use transform="matrix(0.008789062499999998,0,0,0.008789062499999998,97.21582031249999,0)" xlink:href="#aj"/></g><path fill="#333" d="M622-1349c296 4 497 117 497 404 0 282-193 424-485 431H353V0H162v-1349h460zm-15 684c195-3 320-88 320-277 0-184-129-255-328-254H353v531h254" id="am"/><path fill="#333" d="M1003 0L516-638 353-469V0H162v-1349h191v673l572-673h225L646-777 1227 0h-224" id="an"/><g id="g"><use transform="matrix(0.008789062499999998,0,0,0.008789062499999998,0,0)" xlink:href="#am"/><use transform="matrix(0.008789062499999998,0,0,0.008789062499999998,10.801757812499998,0)" xlink:href="#an"/></g><path fill="#333" d="M745-142h380V0H143v-142h422v-798H246v-142h499v940zM545-1292v-192h200v192H545" id="ao"/><path fill="#333" d="M865-914c-3-187-2-380-2-570h180v1261c0 76 1 155 6 223H877c-8-49-9-116-10-174h-5C801-44 708 26 530 26c-135 0-234-46-297-139s-95-232-95-419c0-377 131-566 392-566 176 0 271 63 335 184zm-286-51c-222 0-255 197-255 427 0 229 31 425 253 425 237 0 286-195 286-441 0-238-52-411-284-411" id="ap"/><g id="h"><use transform="matrix(0.008789062499999998,0,0,0.008789062499999998,0,0)" xlink:href="#ao"/><use transform="matrix(0.008789062499999998,0,0,0.008789062499999998,10.801757812499998,0)" xlink:href="#ap"/></g><path fill="#333" d="M202-1349h823v156H709v1037h316V0H202v-156h316v-1037H202v-156" id="aq"/><path fill="#333" d="M912-211c-10-84-18-177-18-274v-864h172V0H836L316-1130c7 79 16 167 16 254V0H162v-1349h222" id="ar"/><path fill="#333" d="M709-1193V0H519v-1193H76v-156h1076v156H709" id="as"/><path fill="#333" d="M162 0v-1349h919v156H353v422h668v154H353v461h769V0H162" id="at"/><path fill="#333" d="M655-135c108 0 195-33 260-74v-336H622v-160h479v572C981-54 839 20 639 20c-388 0-526-306-526-701 0-406 129-689 529-689 261 0 392 137 461 331l-171 56c-47-131-122-231-288-231-281 0-330 245-330 533 0 179 28 314 84 407s142 139 257 139" id="au"/><path fill="#333" d="M1121-976c0 225-142 341-344 379L1177 0H957L591-575H353V0H162v-1349h482c281 3 477 100 477 373zM633-726c181-1 296-73 296-247 0-149-101-223-304-223H353v470h280" id="av"/><g id="i"><use transform="matrix(0.008789062499999998,0,0,0.008789062499999998,0,0)" xlink:href="#aq"/><use transform="matrix(0.008789062499999998,0,0,0.008789062499999998,10.801757812499998,0)" xlink:href="#ar"/><use transform="matrix(0.008789062499999998,0,0,0.008789062499999998,21.603515624999996,0)" xlink:href="#as"/><use transform="matrix(0.008789062499999998,0,0,0.008789062499999998,32.40527343749999,0)" xlink:href="#at"/><use transform="matrix(0.008789062499999998,0,0,0.008789062499999998,43.20703124999999,0)" xlink:href="#au"/><use transform="matrix(0.008789062499999998,0,0,0.008789062499999998,54.008789062499986,0)" xlink:href="#at"/><use transform="matrix(0.008789062499999998,0,0,0.008789062499999998,64.81054687499999,0)" xlink:href="#av"/></g><path fill="#333" d="M706-1102c241 0 344 136 343 381V0H868v-695c1-168-57-273-220-268-190 6-283 138-283 336V0H185c-3-360 6-732-6-1082h170c4 54 7 126 8 185h3c63-121 164-204 346-205" id="aw"/><path fill="#333" d="M904-1102c199 0 220 177 220 381V0H956v-686c-3-114 0-215-60-264-70-33-125-4-158 71-26 56-39 140-39 252V0H531v-686c-3-114-1-215-61-264-78-41-136 24-157 84-24 69-39 159-39 259V0H105c-3-360 6-732-6-1082h149c6 50 3 123 8 175 36-100 83-195 216-195 135 0 166 79 196 196 42-105 93-196 236-196" id="ax"/><g id="j"><use transform="matrix(0.008789062499999998,0,0,0.008789062499999998,0,0)" xlink:href="#aw"/><use transform="matrix(0.008789062499999998,0,0,0.008789062499999998,10.801757812499998,0)" xlink:href="#aj"/><use transform="matrix(0.008789062499999998,0,0,0.008789062499999998,21.603515624999996,0)" xlink:href="#ax"/><use transform="matrix(0.008789062499999998,0,0,0.008789062499999998,32.40527343749999,0)" xlink:href="#al"/></g><path fill="#333" d="M713 0H515L10-1349h201C345-955 498-579 615-168c116-411 269-787 402-1181h201" id="ay"/><path fill="#333" d="M1034 0L896-382H333L196 0H0l510-1349h217L1228 0h-194zM847-531c-77-225-157-447-231-674-69 231-154 451-232 674h463" id="az"/><path fill="#333" d="M650-1214c-281 0-336 244-336 533 0 295 60 546 347 546 188 0 263-142 322-282l159 65C1058-155 935 20 659 20c-401 0-546-295-546-701 0-407 135-689 536-689 264 0 391 146 466 335l-168 65c-47-129-127-244-297-244" id="aA"/><path fill="#333" d="M875 0v-623H353V0H162v-1349h191v566h522v-566h191V0H875" id="aB"/><g id="k"><use transform="matrix(0.008789062499999998,0,0,0.008789062499999998,0,0)" xlink:href="#ay"/><use transform="matrix(0.008789062499999998,0,0,0.008789062499999998,10.801757812499998,0)" xlink:href="#az"/><use transform="matrix(0.008789062499999998,0,0,0.008789062499999998,21.603515624999996,0)" xlink:href="#av"/><use transform="matrix(0.008789062499999998,0,0,0.008789062499999998,32.40527343749999,0)" xlink:href="#aA"/><use transform="matrix(0.008789062499999998,0,0,0.008789062499999998,43.20703124999999,0)" xlink:href="#aB"/><use transform="matrix(0.008789062499999998,0,0,0.008789062499999998,54.008789062499986,0)" xlink:href="#az"/><use transform="matrix(0.008789062499999998,0,0,0.008789062499999998,64.81054687499999,0)" xlink:href="#av"/></g><path fill="#333" d="M1000-272c3 95 12 159 101 161 21 0 41-3 59-7V-6c-44 10-86 16-139 16-141 2-191-84-197-217h-6C748-76 648 20 446 20c-207 0-318-120-318-322 0-266 194-348 454-354l236-4c12-191-40-305-222-305-140 0-220 47-232 172l-188-17c33-204 181-292 423-292 255 0 401 118 401 364v466zm-683-27c0 109 63 184 175 182 166-3 259-96 306-217 24-65 20-120 20-200-232 7-501-28-501 235" id="aC"/><path fill="#333" d="M631 20c-350 0-501-215-501-562 0-355 162-560 502-560 250 0 399 118 446 323l-192 14c-23-124-109-196-262-196-242 0-305 171-305 415 1 245 61 427 304 427 151 0 248-77 267-215l190 12C1039-107 883 20 631 20" id="aD"/><g id="l"><use transform="matrix(0.008789062499999998,0,0,0.008789062499999998,0,0)" xlink:href="#ap"/><use transform="matrix(0.008789062499999998,0,0,0.008789062499999998,10.801757812499998,0)" xlink:href="#aC"/><use transform="matrix(0.008789062499999998,0,0,0.008789062499999998,21.603515624999996,0)" xlink:href="#ae"/><use transform="matrix(0.008789062499999998,0,0,0.008789062499999998,32.40527343749999,0)" xlink:href="#aC"/><use transform="matrix(0.008789062499999998,0,0,0.008789062499999998,43.20703124999999,0)" xlink:href="#ag"/><use transform="matrix(0.008789062499999998,0,0,0.008789062499999998,54.008789062499986,0)" xlink:href="#ao"/><use transform="matrix(0.008789062499999998,0,0,0.008789062499999998,64.81054687499999,0)" xlink:href="#aw"/><use transform="matrix(0.008789062499999998,0,0,0.008789062499999998,75.61230468749999,0)" xlink:href="#ao"/><use transform="matrix(0.008789062499999998,0,0,0.008789062499999998,86.41406249999999,0)" xlink:href="#aD"/><use transform="matrix(0.008789062499999998,0,0,0.008789062499999998,97.21582031249999,0)" xlink:href="#ao"/><use transform="matrix(0.008789062499999998,0,0,0.008789062499999998,108.01757812499997,0)" xlink:href="#aj"/></g><path fill="#333" d="M473-1349c438-1 655 221 652 661C1122-268 945-8 532 0H162v-1349h311zm42 1193c308-4 416-205 418-532 2-330-131-509-459-505H353v1037h162" id="aE"/><g id="m"><use transform="matrix(0.008789062499999998,0,0,0.008789062499999998,0,0)" xlink:href="#aE"/><use transform="matrix(0.008789062499999998,0,0,0.008789062499999998,10.801757812499998,0)" xlink:href="#az"/><use transform="matrix(0.008789062499999998,0,0,0.008789062499999998,21.603515624999996,0)" xlink:href="#as"/><use transform="matrix(0.008789062499999998,0,0,0.008789062499999998,32.40527343749999,0)" xlink:href="#at"/></g><path fill="#333" d="M1048-32c-2 300-135 456-433 456-222-1-358-88-400-267l184-25c22 99 100 157 222 156 184-2 248-125 248-315 0-64 3-133-2-194C807-100 706-13 524-12c-306 0-381-228-381-537 0-318 85-550 400-550 164 0 271 83 325 202h3c1-60 3-134 12-185h171c-13 339-4 702-6 1050zM585-145c210-8 284-178 284-406 0-192-52-331-177-392-33-16-69-22-104-22-223 2-259 184-259 414 0 229 31 415 256 406" id="aF"/><g id="n"><use transform="matrix(0.008789062499999998,0,0,0.008789062499999998,0,0)" xlink:href="#ap"/><use transform="matrix(0.008789062499999998,0,0,0.008789062499999998,10.801757812499998,0)" xlink:href="#aC"/><use transform="matrix(0.008789062499999998,0,0,0.008789062499999998,21.603515624999996,0)" xlink:href="#ae"/><use transform="matrix(0.008789062499999998,0,0,0.008789062499999998,32.40527343749999,0)" xlink:href="#aC"/><use transform="matrix(0.008789062499999998,0,0,0.008789062499999998,43.20703124999999,0)" xlink:href="#ag"/><use transform="matrix(0.008789062499999998,0,0,0.008789062499999998,54.008789062499986,0)" xlink:href="#al"/><use transform="matrix(0.008789062499999998,0,0,0.008789062499999998,64.81054687499999,0)" xlink:href="#aw"/><use transform="matrix(0.008789062499999998,0,0,0.008789062499999998,75.61230468749999,0)" xlink:href="#ae"/><use transform="matrix(0.008789062499999998,0,0,0.008789062499999998,86.41406249999999,0)" xlink:href="#ai"/><use transform="matrix(0.008789062499999998,0,0,0.008789062499999998,97.21582031249999,0)" xlink:href="#al"/><use transform="matrix(0.008789062499999998,0,0,0.008789062499999998,108.01757812499997,0)" xlink:href="#aF"/><use transform="matrix(0.008789062499999998,0,0,0.008789062499999998,118.81933593749999,0)" xlink:href="#aC"/></g><path fill="#333" d="M528 20c-247 0-343-132-343-381v-721h180v686c-4 177 45 284 224 277 194-8 279-136 279-336v-627h181c3 360-6 732 6 1082H885c-4-54-7-126-8-185h-3C809-64 714 20 528 20" id="aG"/><path fill="#333" d="M736-142h380V0H134v-142h422v-1200H267v-142h469v1342" id="aH"/><g id="o"><use transform="matrix(0.008789062499999998,0,0,0.008789062499999998,0,0)" xlink:href="#ap"/><use transform="matrix(0.008789062499999998,0,0,0.008789062499999998,10.801757812499998,0)" xlink:href="#aj"/><use transform="matrix(0.008789062499999998,0,0,0.008789062499999998,21.603515624999996,0)" xlink:href="#aD"/><use transform="matrix(0.008789062499999998,0,0,0.008789062499999998,32.40527343749999,0)" xlink:href="#aG"/><use transform="matrix(0.008789062499999998,0,0,0.008789062499999998,43.20703124999999,0)" xlink:href="#ax"/><use transform="matrix(0.008789062499999998,0,0,0.008789062499999998,54.008789062499986,0)" xlink:href="#al"/><use transform="matrix(0.008789062499999998,0,0,0.008789062499999998,64.81054687499999,0)" xlink:href="#aw"/><use transform="matrix(0.008789062499999998,0,0,0.008789062499999998,75.61230468749999,0)" xlink:href="#ae"/><use transform="matrix(0.008789062499999998,0,0,0.008789062499999998,86.41406249999999,0)" xlink:href="#aC"/><use transform="matrix(0.008789062499999998,0,0,0.008789062499999998,97.21582031249999,0)" xlink:href="#aD"/><use transform="matrix(0.008789062499999998,0,0,0.008789062499999998,108.01757812499997,0)" xlink:href="#aC"/><use transform="matrix(0.008789062499999998,0,0,0.008789062499999998,118.81933593749999,0)" xlink:href="#aj"/><use transform="matrix(0.008789062499999998,0,0,0.008789062499999998,129.62109374999997,0)" xlink:href="#ag"/><use transform="matrix(0.008789062499999998,0,0,0.008789062499999998,140.42285156249997,0)" xlink:href="#aG"/><use transform="matrix(0.008789062499999998,0,0,0.008789062499999998,151.22460937499997,0)" xlink:href="#ai"/><use transform="matrix(0.008789062499999998,0,0,0.008789062499999998,162.02636718749997,0)" xlink:href="#aH"/></g><g id="p"><use transform="matrix(0.008789062499999998,0,0,0.008789062499999998,0,0)" xlink:href="#ay"/><use transform="matrix(0.008789062499999998,0,0,0.008789062499999998,10.801757812499998,0)" xlink:href="#az"/><use transform="matrix(0.008789062499999998,0,0,0.008789062499999998,21.603515624999996,0)" xlink:href="#av"/><use transform="matrix(0.008789062499999998,0,0,0.008789062499999998,32.40527343749999,0)" xlink:href="#aA"/><use transform="matrix(0.008789062499999998,0,0,0.008789062499999998,43.20703124999999,0)" xlink:href="#aB"/><use transform="matrix(0.008789062499999998,0,0,0.008789062499999998,54.008789062499986,0)" xlink:href="#az"/><use transform="matrix(0.008789062499999998,0,0,0.008789062499999998,64.81054687499999,0)" xlink:href="#av"/></g><path fill="#333" d="M385-1193v494h676v158H385V0H194v-1349h891v156H385" id="aI"/><g id="q"><use transform="matrix(0.008789062499999998,0,0,0.008789062499999998,0,0)" xlink:href="#aI"/><use transform="matrix(0.008789062499999998,0,0,0.008789062499999998,10.801757812499998,0)" xlink:href="#an"/></g><path fill="#333" d="M873-819c-18-114-119-146-250-146-163 0-245 50-245 151 0 151 170 148 294 185 182 54 388 94 388 320 0 240-189 325-439 329-245 4-410-69-454-268l159-31c24 133 136 168 295 165 144-2 270-31 270-171 0-164-195-160-331-202-167-52-350-87-350-299 0-218 173-315 413-313 220 2 373 77 412 260" id="aJ"/><g id="r"><use transform="matrix(0.008789062499999998,0,0,0.008789062499999998,0,0)" xlink:href="#aG"/><use transform="matrix(0.008789062499999998,0,0,0.008789062499999998,10.801757812499998,0)" xlink:href="#aJ"/><use transform="matrix(0.008789062499999998,0,0,0.008789062499999998,21.603515624999996,0)" xlink:href="#aG"/><use transform="matrix(0.008789062499999998,0,0,0.008789062499999998,32.40527343749999,0)" xlink:href="#aC"/><use transform="matrix(0.008789062499999998,0,0,0.008789062499999998,43.20703124999999,0)" xlink:href="#ai"/><use transform="matrix(0.008789062499999998,0,0,0.008789062499999998,54.008789062499986,0)" xlink:href="#ao"/><use transform="matrix(0.008789062499999998,0,0,0.008789062499999998,64.81054687499999,0)" xlink:href="#aj"/><use transform="matrix(0.008789062499999998,0,0,0.008789062499999998,75.61230468749999,0)" xlink:href="#ag"/><use transform="matrix(0.008789062499999998,0,0,0.008789062499999998,86.41406249999999,0)" xlink:href="#ao"/><use transform="matrix(0.008789062499999998,0,0,0.008789062499999998,97.21582031249999,0)" xlink:href="#ap"/></g><g id="s"><use transform="matrix(0.008789062499999998,0,0,0.008789062499999998,0,0)" xlink:href="#aq"/><use transform="matrix(0.008789062499999998,0,0,0.008789062499999998,10.801757812499998,0)" xlink:href="#ar"/><use transform="matrix(0.008789062499999998,0,0,0.008789062499999998,21.603515624999996,0)" xlink:href="#as"/><use transform="matrix(0.008789062499999998,0,0,0.008789062499999998,32.40527343749999,0)" xlink:href="#at"/><use transform="matrix(0.008789062499999998,0,0,0.008789062499999998,43.20703124999999,0)" xlink:href="#au"/><use transform="matrix(0.008789062499999998,0,0,0.008789062499999998,54.008789062499986,0)" xlink:href="#at"/><use transform="matrix(0.008789062499999998,0,0,0.008789062499999998,64.81054687499999,0)" xlink:href="#av"/></g><g id="t"><use transform="matrix(0.008789062499999998,0,0,0.008789062499999998,0,0)" xlink:href="#ae"/><use transform="matrix(0.008789062499999998,0,0,0.008789062499999998,10.801757812499998,0)" xlink:href="#af"/><use transform="matrix(0.008789062499999998,0,0,0.008789062499999998,21.603515624999996,0)" xlink:href="#ag"/><use transform="matrix(0.008789062499999998,0,0,0.008789062499999998,32.40527343749999,0)" xlink:href="#aG"/><use transform="matrix(0.008789062499999998,0,0,0.008789062499999998,43.20703124999999,0)" xlink:href="#aJ"/><use transform="matrix(0.008789062499999998,0,0,0.008789062499999998,54.008789062499986,0)" xlink:href="#aG"/><use transform="matrix(0.008789062499999998,0,0,0.008789062499999998,64.81054687499999,0)" xlink:href="#aC"/><use transform="matrix(0.008789062499999998,0,0,0.008789062499999998,75.61230468749999,0)" xlink:href="#ai"/><use transform="matrix(0.008789062499999998,0,0,0.008789062499999998,86.41406249999999,0)" xlink:href="#ao"/><use transform="matrix(0.008789062499999998,0,0,0.008789062499999998,97.21582031249999,0)" xlink:href="#aj"/></g><g id="u"><use transform="matrix(0.008789062499999998,0,0,0.008789062499999998,0,0)" xlink:href="#al"/><use transform="matrix(0.008789062499999998,0,0,0.008789062499999998,10.801757812499998,0)" xlink:href="#ax"/><use transform="matrix(0.008789062499999998,0,0,0.008789062499999998,21.603515624999996,0)" xlink:href="#ah"/><use transform="matrix(0.008789062499999998,0,0,0.008789062499999998,32.40527343749999,0)" xlink:href="#ai"/><use transform="matrix(0.008789062499999998,0,0,0.008789062499999998,43.20703124999999,0)" xlink:href="#al"/><use transform="matrix(0.008789062499999998,0,0,0.008789062499999998,54.008789062499986,0)" xlink:href="#aJ"/><use transform="matrix(0.008789062499999998,0,0,0.008789062499999998,64.81054687499999,0)" xlink:href="#aC"/></g><path fill="#333" d="M604-135c236 0 291-142 291-376v-838h190v859c5 340-142 510-480 510-326 0-463-164-463-492v-877h191v851c-3 222 46 363 271 363" id="aK"/><use transform="matrix(0.008789062499999998,0,0,0.008789062499999998,0,0)" xlink:href="#aK" id="v"/><g id="w"><use transform="matrix(0.008789062499999998,0,0,0.008789062499999998,0,0)" xlink:href="#al"/><use transform="matrix(0.008789062499999998,0,0,0.008789062499999998,10.801757812499998,0)" xlink:href="#ax"/><use transform="matrix(0.008789062499999998,0,0,0.008789062499999998,21.603515624999996,0)" xlink:href="#aC"/><use transform="matrix(0.008789062499999998,0,0,0.008789062499999998,32.40527343749999,0)" xlink:href="#ao"/><use transform="matrix(0.008789062499999998,0,0,0.008789062499999998,43.20703124999999,0)" xlink:href="#aH"/></g><path fill="#333" d="M648-963c-190 6-283 138-283 336V0H185v-1484h181c-2 197 6 404-9 587h3c62-120 159-205 339-205 242 0 351 135 350 381V0H868v-695c1-168-57-273-220-268" id="aL"/><g id="x"><use transform="matrix(0.008789062499999998,0,0,0.008789062499999998,0,0)" xlink:href="#aJ"/><use transform="matrix(0.008789062499999998,0,0,0.008789062499999998,10.801757812499998,0)" xlink:href="#al"/><use transform="matrix(0.008789062499999998,0,0,0.008789062499999998,21.603515624999996,0)" xlink:href="#aw"/><use transform="matrix(0.008789062499999998,0,0,0.008789062499999998,32.40527343749999,0)" xlink:href="#aL"/><use transform="matrix(0.008789062499999998,0,0,0.008789062499999998,43.20703124999999,0)" xlink:href="#aC"/></g><path fill="#333" d="M530 26c-303-6-392-228-392-558 0-187 33-329 98-424s162-142 293-142c178 0 273 69 334 184 1-56 3-122 12-169h175c-6 88-6 180-6 282V425H863c1-202-4-411 4-607h-2C805-59 713 29 530 26zm47-139c234 0 286-193 286-441 0-238-55-411-284-411-223 0-255 198-255 427 0 227 33 425 253 425" id="aM"/><g id="y"><use transform="matrix(0.008789062499999998,0,0,0.008789062499999998,0,0)" xlink:href="#ae"/><use transform="matrix(0.008789062499999998,0,0,0.008789062499999998,10.801757812499998,0)" xlink:href="#af"/><use transform="matrix(0.008789062499999998,0,0,0.008789062499999998,21.603515624999996,0)" xlink:href="#ag"/><use transform="matrix(0.008789062499999998,0,0,0.008789062499999998,32.40527343749999,0)" xlink:href="#ai"/><use transform="matrix(0.008789062499999998,0,0,0.008789062499999998,43.20703124999999,0)" xlink:href="#al"/><use transform="matrix(0.008789062499999998,0,0,0.008789062499999998,54.008789062499986,0)" xlink:href="#aM"/><use transform="matrix(0.008789062499999998,0,0,0.008789062499999998,64.81054687499999,0)" xlink:href="#aG"/><use transform="matrix(0.008789062499999998,0,0,0.008789062499999998,75.61230468749999,0)" xlink:href="#ao"/><use transform="matrix(0.008789062499999998,0,0,0.008789062499999998,86.41406249999999,0)" xlink:href="#aJ"/><use transform="matrix(0.008789062499999998,0,0,0.008789062499999998,97.21582031249999,0)" xlink:href="#ao"/><use transform="matrix(0.008789062499999998,0,0,0.008789062499999998,108.01757812499997,0)" xlink:href="#ae"/><use transform="matrix(0.008789062499999998,0,0,0.008789062499999998,118.81933593749999,0)" xlink:href="#aj"/></g><g id="z"><use transform="matrix(0.008789062499999998,0,0,0.008789062499999998,0,0)" xlink:href="#ae"/><use transform="matrix(0.008789062499999998,0,0,0.008789062499999998,10.801757812499998,0)" xlink:href="#ao"/><use transform="matrix(0.008789062499999998,0,0,0.008789062499999998,21.603515624999996,0)" xlink:href="#ae"/><use transform="matrix(0.008789062499999998,0,0,0.008789062499999998,32.40527343749999,0)" xlink:href="#aG"/><use transform="matrix(0.008789062499999998,0,0,0.008789062499999998,43.20703124999999,0)" xlink:href="#aH"/><use transform="matrix(0.008789062499999998,0,0,0.008789062499999998,54.008789062499986,0)" xlink:href="#aj"/></g><g id="A"><use transform="matrix(0.008789062499999998,0,0,0.008789062499999998,0,0)" xlink:href="#ap"/><use transform="matrix(0.008789062499999998,0,0,0.008789062499999998,10.801757812499998,0)" xlink:href="#al"/><use transform="matrix(0.008789062499999998,0,0,0.008789062499999998,21.603515624999996,0)" xlink:href="#aJ"/><use transform="matrix(0.008789062499999998,0,0,0.008789062499999998,32.40527343749999,0)" xlink:href="#aD"/><use transform="matrix(0.008789062499999998,0,0,0.008789062499999998,43.20703124999999,0)" xlink:href="#ai"/><use transform="matrix(0.008789062499999998,0,0,0.008789062499999998,54.008789062499986,0)" xlink:href="#ao"/><use transform="matrix(0.008789062499999998,0,0,0.008789062499999998,64.81054687499999,0)" xlink:href="#aD"/><use transform="matrix(0.008789062499999998,0,0,0.008789062499999998,75.61230468749999,0)" xlink:href="#aC"/><use transform="matrix(0.008789062499999998,0,0,0.008789062499999998,86.41406249999999,0)" xlink:href="#aj"/></g><g id="B"><use transform="matrix(0.008789062499999998,0,0,0.008789062499999998,0,0)" xlink:href="#ah"/><use transform="matrix(0.008789062499999998,0,0,0.008789062499999998,10.801757812499998,0)" xlink:href="#ai"/><use transform="matrix(0.008789062499999998,0,0,0.008789062499999998,21.603515624999996,0)" xlink:href="#ao"/><use transform="matrix(0.008789062499999998,0,0,0.008789062499999998,32.40527343749999,0)" xlink:href="#aj"/><use transform="matrix(0.008789062499999998,0,0,0.008789062499999998,43.20703124999999,0)" xlink:href="#ai"/><use transform="matrix(0.008789062499999998,0,0,0.008789062499999998,54.008789062499986,0)" xlink:href="#ao"/><use transform="matrix(0.008789062499999998,0,0,0.008789062499999998,64.81054687499999,0)" xlink:href="#ap"/><use transform="matrix(0.008789062499999998,0,0,0.008789062499999998,75.61230468749999,0)" xlink:href="#aC"/><use transform="matrix(0.008789062499999998,0,0,0.008789062499999998,86.41406249999999,0)" xlink:href="#ap"/><use transform="matrix(0.008789062499999998,0,0,0.008789062499999998,97.21582031249999,0)" xlink:href="#al"/></g><path fill="#333" d="M932 0L611-444 288 0H94l415-556-397-526h199l300 421 298-421h201L713-558 1133 0H932" id="aN"/><g id="C"><use transform="matrix(0.008789062499999998,0,0,0.008789062499999998,0,0)" xlink:href="#aD"/><use transform="matrix(0.008789062499999998,0,0,0.008789062499999998,10.801757812499998,0)" xlink:href="#aj"/><use transform="matrix(0.008789062499999998,0,0,0.008789062499999998,21.603515624999996,0)" xlink:href="#ax"/><use transform="matrix(0.008789062499999998,0,0,0.008789062499999998,32.40527343749999,0)" xlink:href="#ah"/><use transform="matrix(0.008789062499999998,0,0,0.008789062499999998,43.20703124999999,0)" xlink:href="#aH"/><use transform="matrix(0.008789062499999998,0,0,0.008789062499999998,54.008789062499986,0)" xlink:href="#al"/><use transform="matrix(0.008789062499999998,0,0,0.008789062499999998,64.81054687499999,0)" xlink:href="#aN"/><use transform="matrix(0.008789062499999998,0,0,0.008789062499999998,75.61230468749999,0)" xlink:href="#ao"/><use transform="matrix(0.008789062499999998,0,0,0.008789062499999998,86.41406249999999,0)" xlink:href="#ap"/><use transform="matrix(0.008789062499999998,0,0,0.008789062499999998,97.21582031249999,0)" xlink:href="#aC"/><use transform="matrix(0.008789062499999998,0,0,0.008789062499999998,108.01757812499997,0)" xlink:href="#ap"/><use transform="matrix(0.008789062499999998,0,0,0.008789062499999998,118.81933593749999,0)" xlink:href="#al"/></g><g id="D"><use transform="matrix(0.008789062499999998,0,0,0.008789062499999998,0,0)" xlink:href="#ae"/><use transform="matrix(0.008789062499999998,0,0,0.008789062499999998,10.801757812499998,0)" xlink:href="#al"/><use transform="matrix(0.008789062499999998,0,0,0.008789062499999998,21.603515624999996,0)" xlink:href="#ax"/><use transform="matrix(0.008789062499999998,0,0,0.008789062499999998,32.40527343749999,0)" xlink:href="#ah"/><use transform="matrix(0.008789062499999998,0,0,0.008789062499999998,43.20703124999999,0)" xlink:href="#aj"/><use transform="matrix(0.008789062499999998,0,0,0.008789062499999998,54.008789062499986,0)" xlink:href="#ag"/><use transform="matrix(0.008789062499999998,0,0,0.008789062499999998,64.81054687499999,0)" xlink:href="#al"/><use transform="matrix(0.008789062499999998,0,0,0.008789062499999998,75.61230468749999,0)" xlink:href="#aJ"/><use transform="matrix(0.008789062499999998,0,0,0.008789062499999998,86.41406249999999,0)" xlink:href="#ae"/><use transform="matrix(0.008789062499999998,0,0,0.008789062499999998,97.21582031249999,0)" xlink:href="#ao"/><use transform="matrix(0.008789062499999998,0,0,0.008789062499999998,108.01757812499997,0)" xlink:href="#ax"/><use transform="matrix(0.008789062499999998,0,0,0.008789062499999998,118.81933593749999,0)" xlink:href="#aC"/><use transform="matrix(0.008789062499999998,0,0,0.008789062499999998,129.62109374999997,0)" xlink:href="#ap"/><use transform="matrix(0.008789062499999998,0,0,0.008789062499999998,140.42285156249997,0)" xlink:href="#aj"/></g><g id="E"><use transform="matrix(0.008789062499999998,0,0,0.008789062499999998,0,0)" xlink:href="#ax"/><use transform="matrix(0.008789062499999998,0,0,0.008789062499999998,10.801757812499998,0)" xlink:href="#aj"/><use transform="matrix(0.008789062499999998,0,0,0.008789062499999998,21.603515624999996,0)" xlink:href="#ax"/><use transform="matrix(0.008789062499999998,0,0,0.008789062499999998,32.40527343749999,0)" xlink:href="#al"/><use transform="matrix(0.008789062499999998,0,0,0.008789062499999998,43.20703124999999,0)" xlink:href="#aw"/><use transform="matrix(0.008789062499999998,0,0,0.008789062499999998,54.008789062499986,0)" xlink:href="#ae"/><use transform="matrix(0.008789062499999998,0,0,0.008789062499999998,64.81054687499999,0)" xlink:href="#aj"/><use transform="matrix(0.008789062499999998,0,0,0.008789062499999998,75.61230468749999,0)" xlink:href="#ag"/><use transform="matrix(0.008789062499999998,0,0,0.008789062499999998,86.41406249999999,0)" xlink:href="#ai"/><use transform="matrix(0.008789062499999998,0,0,0.008789062499999998,97.21582031249999,0)" xlink:href="#al"/><use transform="matrix(0.008789062499999998,0,0,0.008789062499999998,108.01757812499997,0)" xlink:href="#aF"/><use transform="matrix(0.008789062499999998,0,0,0.008789062499999998,118.81933593749999,0)" xlink:href="#ao"/><use transform="matrix(0.008789062499999998,0,0,0.008789062499999998,129.62109374999997,0)" xlink:href="#aJ"/><use transform="matrix(0.008789062499999998,0,0,0.008789062499999998,140.42285156249997,0)" xlink:href="#ae"/><use transform="matrix(0.008789062499999998,0,0,0.008789062499999998,151.22460937499997,0)" xlink:href="#ai"/><use transform="matrix(0.008789062499999998,0,0,0.008789062499999998,162.02636718749997,0)" xlink:href="#aj"/></g><path fill="#333" d="M285-1169c8 382 2 780 4 1169H129v-1349h237c86 239 188 461 253 720 69-258 169-481 255-720h225V0H937c2-390-5-788 6-1169-75 255-170 488-259 729H547c-90-240-185-475-262-729" id="aO"/><path fill="#333" d="M614-1226c-167 1-283 53-283 213 0 183 186 193 334 234 230 63 463 120 463 409 0 286-219 387-518 390C309 23 131-98 79-338l185-37c34 165 149 248 351 246 184-2 324-58 324-238 0-203-207-221-372-266-210-57-422-111-422-377 0-267 201-356 470-360 279-5 430 101 480 324l-188 33c-28-141-121-215-293-213" id="aP"/><g id="F"><use transform="matrix(0.008789062499999998,0,0,0.008789062499999998,0,0)" xlink:href="#as"/><use transform="matrix(0.008789062499999998,0,0,0.008789062499999998,10.801757812499998,0)" xlink:href="#aq"/><use transform="matrix(0.008789062499999998,0,0,0.008789062499999998,21.603515624999996,0)" xlink:href="#aO"/><use transform="matrix(0.008789062499999998,0,0,0.008789062499999998,32.40527343749999,0)" xlink:href="#at"/><use transform="matrix(0.008789062499999998,0,0,0.008789062499999998,43.20703124999999,0)" xlink:href="#aP"/><use transform="matrix(0.008789062499999998,0,0,0.008789062499999998,54.008789062499986,0)" xlink:href="#as"/><use transform="matrix(0.008789062499999998,0,0,0.008789062499999998,64.81054687499999,0)" xlink:href="#az"/><use transform="matrix(0.008789062499999998,0,0,0.008789062499999998,75.61230468749999,0)" xlink:href="#aO"/><use transform="matrix(0.008789062499999998,0,0,0.008789062499999998,86.41406249999999,0)" xlink:href="#am"/></g><g id="G"><use transform="matrix(0.008789062499999998,0,0,0.008789062499999998,0,0)" xlink:href="#aH"/><use transform="matrix(0.008789062499999998,0,0,0.008789062499999998,10.801757812499998,0)" xlink:href="#aC"/><use transform="matrix(0.008789062499999998,0,0,0.008789062499999998,21.603515624999996,0)" xlink:href="#ae"/><use transform="matrix(0.008789062499999998,0,0,0.008789062499999998,32.40527343749999,0)" xlink:href="#ao"/><use transform="matrix(0.008789062499999998,0,0,0.008789062499999998,43.20703124999999,0)" xlink:href="#ae"/><use transform="matrix(0.008789062499999998,0,0,0.008789062499999998,54.008789062499986,0)" xlink:href="#aG"/><use transform="matrix(0.008789062499999998,0,0,0.008789062499999998,64.81054687499999,0)" xlink:href="#ap"/><use transform="matrix(0.008789062499999998,0,0,0.008789062499999998,75.61230468749999,0)" xlink:href="#al"/><use transform="matrix(0.008789062499999998,0,0,0.008789062499999998,86.41406249999999,0)" xlink:href="#ag"/><use transform="matrix(0.008789062499999998,0,0,0.008789062499999998,97.21582031249999,0)" xlink:href="#ai"/><use transform="matrix(0.008789062499999998,0,0,0.008789062499999998,108.01757812499997,0)" xlink:href="#al"/><use transform="matrix(0.008789062499999998,0,0,0.008789062499999998,118.81933593749999,0)" xlink:href="#aF"/><use transform="matrix(0.008789062499999998,0,0,0.008789062499999998,129.62109374999997,0)" xlink:href="#ao"/><use transform="matrix(0.008789062499999998,0,0,0.008789062499999998,140.42285156249997,0)" xlink:href="#aJ"/><use transform="matrix(0.008789062499999998,0,0,0.008789062499999998,151.22460937499997,0)" xlink:href="#ae"/><use transform="matrix(0.008789062499999998,0,0,0.008789062499999998,162.02636718749997,0)" xlink:href="#ai"/><use transform="matrix(0.008789062499999998,0,0,0.008789062499999998,172.82812499999997,0)" xlink:href="#aj"/></g><g id="H"><use transform="matrix(0.008789062499999998,0,0,0.008789062499999998,0,0)" xlink:href="#ar"/><use transform="matrix(0.008789062499999998,0,0,0.008789062499999998,10.801757812499998,0)" xlink:href="#aK"/><use transform="matrix(0.008789062499999998,0,0,0.008789062499999998,21.603515624999996,0)" xlink:href="#aO"/><use transform="matrix(0.008789062499999998,0,0,0.008789062499999998,32.40527343749999,0)" xlink:href="#at"/><use transform="matrix(0.008789062499999998,0,0,0.008789062499999998,43.20703124999999,0)" xlink:href="#av"/><use transform="matrix(0.008789062499999998,0,0,0.008789062499999998,54.008789062499986,0)" xlink:href="#aq"/><use transform="matrix(0.008789062499999998,0,0,0.008789062499999998,64.81054687499999,0)" xlink:href="#aA"/></g><g id="I"><use transform="matrix(0.008789062499999998,0,0,0.008789062499999998,0,0)" xlink:href="#aH"/><use transform="matrix(0.008789062499999998,0,0,0.008789062499999998,10.801757812499998,0)" xlink:href="#aj"/><use transform="matrix(0.008789062499999998,0,0,0.008789062499999998,21.603515624999996,0)" xlink:href="#aw"/><use transform="matrix(0.008789062499999998,0,0,0.008789062499999998,32.40527343749999,0)" xlink:href="#aF"/><use transform="matrix(0.008789062499999998,0,0,0.008789062499999998,43.20703124999999,0)" xlink:href="#ao"/><use transform="matrix(0.008789062499999998,0,0,0.008789062499999998,54.008789062499986,0)" xlink:href="#ae"/><use transform="matrix(0.008789062499999998,0,0,0.008789062499999998,64.81054687499999,0)" xlink:href="#aG"/><use transform="matrix(0.008789062499999998,0,0,0.008789062499999998,75.61230468749999,0)" xlink:href="#ap"/><use transform="matrix(0.008789062499999998,0,0,0.008789062499999998,86.41406249999999,0)" xlink:href="#al"/><use transform="matrix(0.008789062499999998,0,0,0.008789062499999998,97.21582031249999,0)" xlink:href="#ag"/><use transform="matrix(0.008789062499999998,0,0,0.008789062499999998,108.01757812499997,0)" xlink:href="#ai"/><use transform="matrix(0.008789062499999998,0,0,0.008789062499999998,118.81933593749999,0)" xlink:href="#al"/><use transform="matrix(0.008789062499999998,0,0,0.008789062499999998,129.62109374999997,0)" xlink:href="#aF"/><use transform="matrix(0.008789062499999998,0,0,0.008789062499999998,140.42285156249997,0)" xlink:href="#ao"/><use transform="matrix(0.008789062499999998,0,0,0.008789062499999998,151.22460937499997,0)" xlink:href="#aJ"/><use transform="matrix(0.008789062499999998,0,0,0.008789062499999998,162.02636718749997,0)" xlink:href="#ae"/><use transform="matrix(0.008789062499999998,0,0,0.008789062499999998,172.82812499999997,0)" xlink:href="#ai"/><use transform="matrix(0.008789062499999998,0,0,0.008789062499999998,183.62988281249997,0)" xlink:href="#aj"/></g><g id="J"><use transform="matrix(0.008789062499999998,0,0,0.008789062499999998,0,0)" xlink:href="#aI"/><use transform="matrix(0.008789062499999998,0,0,0.008789062499999998,10.801757812499998,0)" xlink:href="#an"/></g><g id="K"><use transform="matrix(0.008789062499999998,0,0,0.008789062499999998,0,0)" xlink:href="#ah"/><use transform="matrix(0.008789062499999998,0,0,0.008789062499999998,10.801757812499998,0)" xlink:href="#ai"/><use transform="matrix(0.008789062499999998,0,0,0.008789062499999998,21.603515624999996,0)" xlink:href="#aj"/><use transform="matrix(0.008789062499999998,0,0,0.008789062499999998,32.40527343749999,0)" xlink:href="#ak"/><use transform="matrix(0.008789062499999998,0,0,0.008789062499999998,43.20703124999999,0)" xlink:href="#al"/><use transform="matrix(0.008789062499999998,0,0,0.008789062499999998,54.008789062499986,0)" xlink:href="#ae"/><use transform="matrix(0.008789062499999998,0,0,0.008789062499999998,64.81054687499999,0)" xlink:href="#aj"/><use transform="matrix(0.008789062499999998,0,0,0.008789062499999998,75.61230468749999,0)" xlink:href="#ag"/><use transform="matrix(0.008789062499999998,0,0,0.008789062499999998,86.41406249999999,0)" xlink:href="#ao"/><use transform="matrix(0.008789062499999998,0,0,0.008789062499999998,97.21582031249999,0)" xlink:href="#ap"/></g><g id="L"><use transform="matrix(0.008789062499999998,0,0,0.008789062499999998,0,0)" xlink:href="#ae"/><use transform="matrix(0.008789062499999998,0,0,0.008789062499999998,10.801757812499998,0)" xlink:href="#af"/><use transform="matrix(0.008789062499999998,0,0,0.008789062499999998,21.603515624999996,0)" xlink:href="#ag"/><use transform="matrix(0.008789062499999998,0,0,0.008789062499999998,32.40527343749999,0)" xlink:href="#ai"/><use transform="matrix(0.008789062499999998,0,0,0.008789062499999998,43.20703124999999,0)" xlink:href="#al"/><use transform="matrix(0.008789062499999998,0,0,0.008789062499999998,54.008789062499986,0)" xlink:href="#aM"/><use transform="matrix(0.008789062499999998,0,0,0.008789062499999998,64.81054687499999,0)" xlink:href="#aG"/><use transform="matrix(0.008789062499999998,0,0,0.008789062499999998,75.61230468749999,0)" xlink:href="#ao"/><use transform="matrix(0.008789062499999998,0,0,0.008789062499999998,86.41406249999999,0)" xlink:href="#aJ"/><use transform="matrix(0.008789062499999998,0,0,0.008789062499999998,97.21582031249999,0)" xlink:href="#ao"/><use transform="matrix(0.008789062499999998,0,0,0.008789062499999998,108.01757812499997,0)" xlink:href="#ae"/><use transform="matrix(0.008789062499999998,0,0,0.008789062499999998,118.81933593749999,0)" xlink:href="#aj"/><use transform="matrix(0.008789062499999998,0,0,0.008789062499999998,129.62109374999997,0)" xlink:href="#ag"/><use transform="matrix(0.008789062499999998,0,0,0.008789062499999998,140.42285156249997,0)" xlink:href="#ao"/><use transform="matrix(0.008789062499999998,0,0,0.008789062499999998,151.22460937499997,0)" xlink:href="#ax"/><use transform="matrix(0.008789062499999998,0,0,0.008789062499999998,162.02636718749997,0)" xlink:href="#aC"/><use transform="matrix(0.008789062499999998,0,0,0.008789062499999998,172.82812499999997,0)" xlink:href="#aF"/><use transform="matrix(0.008789062499999998,0,0,0.008789062499999998,183.62988281249997,0)" xlink:href="#al"/><use transform="matrix(0.008789062499999998,0,0,0.008789062499999998,194.43164062499997,0)" xlink:href="#ax"/></g><g id="M"><use transform="matrix(0.008789062499999998,0,0,0.008789062499999998,0,0)" xlink:href="#aG"/><use transform="matrix(0.008789062499999998,0,0,0.008789062499999998,10.801757812499998,0)" xlink:href="#ai"/><use transform="matrix(0.008789062499999998,0,0,0.008789062499999998,21.603515624999996,0)" xlink:href="#aH"/></g><g id="N"><use transform="matrix(0.008789062499999998,0,0,0.008789062499999998,0,0)" xlink:href="#ai"/><use transform="matrix(0.008789062499999998,0,0,0.008789062499999998,10.801757812499998,0)" xlink:href="#al"/><use transform="matrix(0.008789062499999998,0,0,0.008789062499999998,21.603515624999996,0)" xlink:href="#aM"/><use transform="matrix(0.008789062499999998,0,0,0.008789062499999998,32.40527343749999,0)" xlink:href="#aG"/><use transform="matrix(0.008789062499999998,0,0,0.008789062499999998,43.20703124999999,0)" xlink:href="#ao"/><use transform="matrix(0.008789062499999998,0,0,0.008789062499999998,54.008789062499986,0)" xlink:href="#aJ"/><use transform="matrix(0.008789062499999998,0,0,0.008789062499999998,64.81054687499999,0)" xlink:href="#ao"/><use transform="matrix(0.008789062499999998,0,0,0.008789062499999998,75.61230468749999,0)" xlink:href="#ae"/><use transform="matrix(0.008789062499999998,0,0,0.008789062499999998,86.41406249999999,0)" xlink:href="#aj"/><use transform="matrix(0.008789062499999998,0,0,0.008789062499999998,97.21582031249999,0)" xlink:href="#ag"/><use transform="matrix(0.008789062499999998,0,0,0.008789062499999998,108.01757812499997,0)" xlink:href="#ao"/><use transform="matrix(0.008789062499999998,0,0,0.008789062499999998,118.81933593749999,0)" xlink:href="#ap"/></g></defs></g></svg>